<?xml version="1.0" encoding="UTF-8"?>
<svg id="Calque_2" data-name="Calque 2" xmlns="http://www.w3.org/2000/svg" viewBox="0 0 28 27">
  <defs>
    <style>
      .cls-1 {
        fill: #25084b;
        stroke-width: 0px;
      }
    </style>
  </defs>
  <g id="Calque_1-2" data-name="Calque 1">
    <path class="cls-1" d="M9.4,4.01c-.96,1.17-1.4,2.69-1.4,3.99,0,.27-.11.52-.29.71-.19.19-.44.29-.71.29-3.62,0-5,2.53-5,4,0,.85.22,1.83.88,2.59.64.73,1.83,1.41,4.12,1.41h4.85c-.19.64-.3,1.31-.34,2h-4.51c-2.71,0-4.51-.82-5.63-2.09-1.09-1.24-1.37-2.76-1.37-3.91,0-2.36,1.93-5.53,6.06-5.95.17-1.46.74-3.02,1.79-4.3,1.32-1.61,3.35-2.74,6.15-2.74,1.7,0,3.68.56,5.26,1.85,1.42,1.16,2.47,2.89,2.7,5.21,1.38.16,2.71.68,3.78,1.51,1.33,1.02,2.26,2.55,2.26,4.44,0,.45-.04.9-.12,1.34-.54-.77-1.19-1.45-1.94-2.02-.17-.87-.68-1.61-1.42-2.18-.94-.72-2.22-1.15-3.51-1.15-.27,0-.52-.11-.71-.29s-.29-.44-.29-.71c0-2.2-.87-3.67-2.01-4.6-1.17-.96-2.69-1.4-3.99-1.4-2.2,0-3.67.87-4.6,2.01ZM28,19.5c0,1.99-.79,3.9-2.2,5.3-1.41,1.41-3.31,2.2-5.3,2.2s-3.9-.79-5.3-2.2c-1.41-1.41-2.2-3.31-2.2-5.3s.79-3.9,2.2-5.3c1.41-1.41,3.31-2.2,5.3-2.2s3.9.79,5.3,2.2c1.41,1.41,2.2,3.31,2.2,5.3ZM16.22,20.78l4,4c.14.14.33.22.53.22s.39-.08.53-.22l4-4c.07-.07.13-.15.17-.24.04-.09.06-.19.06-.29,0-.1-.02-.2-.05-.29-.04-.09-.09-.18-.17-.25-.07-.07-.16-.13-.25-.17-.09-.04-.19-.06-.29-.05-.1,0-.2.02-.29.06-.09.04-.17.1-.24.17l-2.72,2.72v-7.69c0-.2-.08-.39-.22-.53-.14-.14-.33-.22-.53-.22s-.39.08-.53.22c-.14.14-.22.33-.22.53v7.69l-2.72-2.72c-.07-.07-.15-.13-.24-.17-.09-.04-.19-.06-.29-.06-.1,0-.2.02-.29.05-.09.04-.18.09-.25.17-.07.07-.13.16-.17.25-.04.09-.06.19-.05.29,0,.1.02.2.06.29.04.09.1.17.17.24Z"/>
  </g>
</svg>