<svg width="26" height="24" viewBox="0 0 26 24" fill="none" xmlns="http://www.w3.org/2000/svg">
<g clip-path="url(#clip0_4020_54)">
<path d="M19.9604 8H7.8813V4H19.9604V8ZM19.9604 13.5C20.2456 13.5 20.4849 13.404 20.6781 13.212C20.8714 13.02 20.9677 12.7827 20.967 12.5C20.967 12.2167 20.8704 11.9793 20.6771 11.788C20.4839 11.5967 20.245 11.5007 19.9604 11.5C19.6752 11.5 19.4363 11.596 19.2437 11.788C19.0511 11.98 18.9545 12.2173 18.9538 12.5C18.9538 12.7833 19.0505 13.021 19.2437 13.213C19.437 13.405 19.6759 13.5007 19.9604 13.5ZM17.9472 20V16H9.89449V20H17.9472ZM19.9604 22H7.8813V18H3.85492V12C3.85492 11.15 4.14851 10.4377 4.73569 9.863C5.32287 9.28833 6.03587 9.00067 6.8747 9H20.967C21.8226 9 22.54 9.28767 23.1191 9.863C23.6983 10.4383 23.9875 11.1507 23.9868 12V18H19.9604V22Z" fill="#25084B"/>
</g>
<defs>
<clipPath id="clip0_4020_54">
<rect width="25.2086" height="24" fill="white" transform="translate(0.791382)"/>
</clipPath>
</defs>
</svg>
