<?xml version="1.0" encoding="UTF-8"?>
<svg id="Calque_2" data-name="Calque 2" xmlns="http://www.w3.org/2000/svg" viewBox="0 0 28 27">
  <defs>
    <style>
      .cls-1 {
        fill: #25084b;
        stroke-width: 0px;
      }
    </style>
  </defs>
  <g id="Calque_1-2" data-name="Calque 1">
    <path class="cls-1" d="M14,0c-4.19,0-7.63,3.35-7.97,7.62h-.36c-1.5,0-2.94.62-4.01,1.72-1.06,1.1-1.66,2.6-1.66,4.16s.6,3.06,1.66,4.16c1.06,1.1,2.5,1.72,4.01,1.72h6.33c0-4.97,3.88-9,8.67-9,3.04,0,5.71,1.62,7.26,4.08.13-.84.09-1.71-.13-2.53-.22-.82-.61-1.59-1.14-2.24-.53-.65-1.19-1.18-1.94-1.53-.75-.36-1.56-.54-2.38-.54h-.36c-.34-4.26-3.78-7.62-7.97-7.62ZM28,19.38c0,4.21-3.28,7.62-7.33,7.62s-7.33-3.41-7.33-7.62,3.28-7.62,7.33-7.62,7.33,3.41,7.33,7.62ZM20.67,13.85c-.18,0-.35.07-.47.2-.13.13-.2.31-.2.49v8.02l-2.2-2.28c-.13-.13-.29-.2-.47-.19-.17,0-.34.07-.47.2-.12.13-.19.3-.2.48,0,.18.07.36.19.49l3.33,3.46c.13.13.29.2.47.2s.35-.07.47-.2l3.33-3.46c.12-.13.19-.31.19-.49,0-.18-.07-.36-.2-.48-.12-.13-.29-.2-.47-.2-.17,0-.34.07-.47.19l-2.2,2.28v-8.02c0-.18-.07-.36-.2-.49-.13-.13-.29-.2-.47-.2Z"/>
  </g>
</svg>