<svg width="182" height="30" viewBox="0 0 182 30" fill="none" xmlns="http://www.w3.org/2000/svg">
<g clip-path="url(#clip0_2_4)">
<path d="M25.2495 0.106995V9.07712H18.0296V30.0045H7.26448V9.07267H0V0.106995H25.2495Z" fill="#25084B"/>
<path d="M32.407 30L29.3745 15.0111L26.9798 15.4793L29.9275 30H18.266L26.2128 0.106995H37.4462L43.4709 30.0045H32.407V30Z" fill="#25084B"/>
<path d="M33.0135 0.106995H19.5548V5.01114H33.0135V0.106995Z" fill="#25084B"/>
<path d="M112.489 0.106995H101.109V8.30138H112.489V0.106995Z" fill="#25084B"/>
<path d="M66.0861 0.106995V9.07712H58.8663V30.0045H48.1011V9.07267H40.8366V0.106995H66.0861Z" fill="#25084B"/>
<path d="M102.571 0.106995V9.07712H95.3515V30.0045H84.5864V9.07267H77.3219V0.106995H102.571Z" fill="#25084B"/>
<path d="M64.6547 30V0.106995H75.4198V30.0045H64.6547V30Z" fill="#25084B"/>
<path d="M126.443 11.4579V18.5823C126.443 25.4169 121.524 30 114.108 30C106.692 30 101.394 25.4169 101.394 18.5823V11.4579C101.394 4.58315 106.478 0 114.108 0C121.738 0 126.443 4.58315 126.443 11.4579ZM112.77 20.8337H115.062V9.1663H112.77V20.8337Z" fill="#25084B"/>
<path d="M152.25 0V8.97013H145.03V29.8975H134.264V8.97013H127V0H152.25Z" fill="#25084B"/>
<path d="M163.84 0H174.707V18.93C174.707 25.564 169.963 30 162.881 30C155.799 30 150.68 25.564 150.68 18.93V0H161.547V20.7044H163.84V0Z" fill="#25084B"/>
</g>
<defs>
<clipPath id="clip0_2_4">
<rect width="182" height="30" fill="white"/>
</clipPath>
</defs>
</svg>
